<svg xmlns="http://www.w3.org/2000/svg" version="1.1" xmlns:xlink="http://www.w3.org/1999/xlink" xmlns:svgjs="http://svgjs.com/svgjs" width="20" height="20" x="0" y="0" viewBox="0 0 24 24" style="enable-background:new 0 0 20 20" xml:space="preserve" class=""><g><path d="M18 3.25H6A3.383 3.383 0 0 0 2.25 7v10A3.383 3.383 0 0 0 6 20.75h12A3.383 3.383 0 0 0 21.75 17V7A3.383 3.383 0 0 0 18 3.25zM6 4.75h12c1.577 0 2.25.673 2.25 2.25v7.25l-4.54-4.54a1.008 1.008 0 0 0-1.42 0l-4.94 4.94a.5.5 0 0 1-.7 0l-.94-.94a1.008 1.008 0 0 0-1.42 0l-2.54 2.54V7c0-1.577.673-2.25 2.25-2.25zM6.75 9a1.244 1.244 0 0 1 1.243-1.25H8A1.25 1.25 0 1 1 6.75 9z" fill="#ffffff" data-original="#000000" class=""></path></g></svg>