<svg xmlns="http://www.w3.org/2000/svg" width="1200" height="611" viewBox="0 0 1200 611">
  <g id="Group_4" data-name="Group 4" transform="translate(0 -63.818)">
    <g id="Group_3" data-name="Group 3" transform="translate(0 63.818)">
      <rect id="Rectangle_16231" data-name="Rectangle 16231" width="1200" height="610.818" transform="translate(0 0.182)" fill="#f6f6f6"/>
      <path id="Path_2" data-name="Path 2" d="M1270,675.17s538.357-54.919,605.9-261.662,92.534-347.453,275.916-348.632S2470,64.351,2470,64.351V675.17Z" transform="translate(-1270 -64.17)" fill="#eaf1f2"/>
      <g id="Group_5" data-name="Group 5" transform="translate(78 152.136)" opacity="0.2">
        <ellipse id="Ellipse_1" data-name="Ellipse 1" cx="1.5" cy="1.5" rx="1.5" ry="1.5" transform="translate(0 0)" fill="#018395"/>
        <ellipse id="Ellipse_33" data-name="Ellipse 33" cx="1.5" cy="1.5" rx="1.5" ry="1.5" transform="translate(0 51.985)" fill="#018395"/>
        <ellipse id="Ellipse_17" data-name="Ellipse 17" cx="1.5" cy="1.5" rx="1.5" ry="1.5" transform="translate(0 25.992)" fill="#018395"/>
        <ellipse id="Ellipse_34" data-name="Ellipse 34" cx="1.5" cy="1.5" rx="1.5" ry="1.5" transform="translate(0 77.977)" fill="#018395"/>
        <ellipse id="Ellipse_9" data-name="Ellipse 9" cx="1.5" cy="1.5" rx="1.5" ry="1.5" transform="translate(52 0)" fill="#018395"/>
        <ellipse id="Ellipse_35" data-name="Ellipse 35" cx="1.5" cy="1.5" rx="1.5" ry="1.5" transform="translate(52 51.985)" fill="#018395"/>
        <ellipse id="Ellipse_19" data-name="Ellipse 19" cx="1.5" cy="1.5" rx="1.5" ry="1.5" transform="translate(52 25.992)" fill="#018395"/>
        <ellipse id="Ellipse_36" data-name="Ellipse 36" cx="1.5" cy="1.5" rx="1.5" ry="1.5" transform="translate(52 77.977)" fill="#018395"/>
        <ellipse id="Ellipse_5" data-name="Ellipse 5" cx="1.5" cy="1.5" rx="1.5" ry="1.5" transform="translate(0 12.996)" fill="#018395"/>
        <ellipse id="Ellipse_37" data-name="Ellipse 37" cx="1.5" cy="1.5" rx="1.5" ry="1.5" transform="translate(0 64.981)" fill="#018395"/>
        <ellipse id="Ellipse_20" data-name="Ellipse 20" cx="1.5" cy="1.5" rx="1.5" ry="1.5" transform="translate(0 38.988)" fill="#018395"/>
        <ellipse id="Ellipse_51" data-name="Ellipse 51" cx="1.5" cy="1.5" rx="1.5" ry="1.5" transform="translate(0 90.973)" fill="#018395"/>
        <ellipse id="Ellipse_11" data-name="Ellipse 11" cx="1.5" cy="1.5" rx="1.5" ry="1.5" transform="translate(52 12.996)" fill="#018395"/>
        <ellipse id="Ellipse_38" data-name="Ellipse 38" cx="1.5" cy="1.5" rx="1.5" ry="1.5" transform="translate(52 64.981)" fill="#018395"/>
        <ellipse id="Ellipse_21" data-name="Ellipse 21" cx="1.5" cy="1.5" rx="1.5" ry="1.5" transform="translate(52 38.988)" fill="#018395"/>
        <ellipse id="Ellipse_52" data-name="Ellipse 52" cx="1.5" cy="1.5" rx="1.5" ry="1.5" transform="translate(52 90.973)" fill="#018395"/>
        <ellipse id="Ellipse_4" data-name="Ellipse 4" cx="1.5" cy="1.5" rx="1.5" ry="1.5" transform="translate(26 0)" fill="#018395"/>
        <ellipse id="Ellipse_39" data-name="Ellipse 39" cx="1.5" cy="1.5" rx="1.5" ry="1.5" transform="translate(26 51.985)" fill="#018395"/>
        <ellipse id="Ellipse_22" data-name="Ellipse 22" cx="1.5" cy="1.5" rx="1.5" ry="1.5" transform="translate(26 25.992)" fill="#018395"/>
        <ellipse id="Ellipse_40" data-name="Ellipse 40" cx="1.5" cy="1.5" rx="1.5" ry="1.5" transform="translate(26 77.977)" fill="#018395"/>
        <ellipse id="Ellipse_12" data-name="Ellipse 12" cx="1.5" cy="1.5" rx="1.5" ry="1.5" transform="translate(78 0)" fill="#018395"/>
        <ellipse id="Ellipse_53" data-name="Ellipse 53" cx="1.5" cy="1.5" rx="1.5" ry="1.5" transform="translate(78 51.985)" fill="#018395"/>
        <ellipse id="Ellipse_23" data-name="Ellipse 23" cx="1.5" cy="1.5" rx="1.5" ry="1.5" transform="translate(78 25.992)" fill="#018395"/>
        <ellipse id="Ellipse_54" data-name="Ellipse 54" cx="1.5" cy="1.5" rx="1.5" ry="1.5" transform="translate(78 77.977)" fill="#018395"/>
        <ellipse id="Ellipse_6" data-name="Ellipse 6" cx="1.5" cy="1.5" rx="1.5" ry="1.5" transform="translate(26 12.996)" fill="#018395"/>
        <ellipse id="Ellipse_41" data-name="Ellipse 41" cx="1.5" cy="1.5" rx="1.5" ry="1.5" transform="translate(26 64.981)" fill="#018395"/>
        <ellipse id="Ellipse_24" data-name="Ellipse 24" cx="1.5" cy="1.5" rx="1.5" ry="1.5" transform="translate(26 38.988)" fill="#018395"/>
        <ellipse id="Ellipse_55" data-name="Ellipse 55" cx="1.5" cy="1.5" rx="1.5" ry="1.5" transform="translate(26 90.973)" fill="#018395"/>
        <ellipse id="Ellipse_13" data-name="Ellipse 13" cx="1.5" cy="1.5" rx="1.5" ry="1.5" transform="translate(78 12.996)" fill="#018395"/>
        <ellipse id="Ellipse_56" data-name="Ellipse 56" cx="1.5" cy="1.5" rx="1.5" ry="1.5" transform="translate(78 64.981)" fill="#018395"/>
        <ellipse id="Ellipse_25" data-name="Ellipse 25" cx="1.5" cy="1.5" rx="1.5" ry="1.5" transform="translate(78 38.988)" fill="#018395"/>
        <ellipse id="Ellipse_57" data-name="Ellipse 57" cx="1.5" cy="1.5" rx="1.5" ry="1.5" transform="translate(78 90.973)" fill="#018395"/>
        <ellipse id="Ellipse_2" data-name="Ellipse 2" cx="1.5" cy="1.5" rx="1.5" ry="1.5" transform="translate(13 0)" fill="#018395"/>
        <ellipse id="Ellipse_42" data-name="Ellipse 42" cx="1.5" cy="1.5" rx="1.5" ry="1.5" transform="translate(13 51.985)" fill="#018395"/>
        <ellipse id="Ellipse_18" data-name="Ellipse 18" cx="1.5" cy="1.5" rx="1.5" ry="1.5" transform="translate(13 25.992)" fill="#018395"/>
        <ellipse id="Ellipse_43" data-name="Ellipse 43" cx="1.5" cy="1.5" rx="1.5" ry="1.5" transform="translate(13 77.977)" fill="#018395"/>
        <ellipse id="Ellipse_10" data-name="Ellipse 10" cx="1.5" cy="1.5" rx="1.5" ry="1.5" transform="translate(65 0)" fill="#018395"/>
        <ellipse id="Ellipse_44" data-name="Ellipse 44" cx="1.5" cy="1.5" rx="1.5" ry="1.5" transform="translate(65 51.985)" fill="#018395"/>
        <ellipse id="Ellipse_26" data-name="Ellipse 26" cx="1.5" cy="1.5" rx="1.5" ry="1.5" transform="translate(65 25.992)" fill="#018395"/>
        <ellipse id="Ellipse_45" data-name="Ellipse 45" cx="1.5" cy="1.5" rx="1.5" ry="1.5" transform="translate(65 77.977)" fill="#018395"/>
        <ellipse id="Ellipse_7" data-name="Ellipse 7" cx="1.5" cy="1.5" rx="1.5" ry="1.5" transform="translate(13 12.996)" fill="#018395"/>
        <ellipse id="Ellipse_46" data-name="Ellipse 46" cx="1.5" cy="1.5" rx="1.5" ry="1.5" transform="translate(13 64.981)" fill="#018395"/>
        <ellipse id="Ellipse_27" data-name="Ellipse 27" cx="1.5" cy="1.5" rx="1.5" ry="1.5" transform="translate(13 38.988)" fill="#018395"/>
        <ellipse id="Ellipse_58" data-name="Ellipse 58" cx="1.5" cy="1.5" rx="1.5" ry="1.5" transform="translate(13 90.973)" fill="#018395"/>
        <ellipse id="Ellipse_14" data-name="Ellipse 14" cx="1.5" cy="1.5" rx="1.5" ry="1.5" transform="translate(65 12.996)" fill="#018395"/>
        <ellipse id="Ellipse_47" data-name="Ellipse 47" cx="1.5" cy="1.5" rx="1.5" ry="1.5" transform="translate(65 64.981)" fill="#018395"/>
        <ellipse id="Ellipse_28" data-name="Ellipse 28" cx="1.5" cy="1.5" rx="1.5" ry="1.5" transform="translate(65 38.988)" fill="#018395"/>
        <ellipse id="Ellipse_59" data-name="Ellipse 59" cx="1.5" cy="1.5" rx="1.5" ry="1.5" transform="translate(65 90.973)" fill="#018395"/>
        <ellipse id="Ellipse_3" data-name="Ellipse 3" cx="1.5" cy="1.5" rx="1.5" ry="1.5" transform="translate(39 0)" fill="#018395"/>
        <ellipse id="Ellipse_48" data-name="Ellipse 48" cx="1.5" cy="1.5" rx="1.5" ry="1.5" transform="translate(39 51.985)" fill="#018395"/>
        <ellipse id="Ellipse_29" data-name="Ellipse 29" cx="1.5" cy="1.5" rx="1.5" ry="1.5" transform="translate(39 25.992)" fill="#018395"/>
        <ellipse id="Ellipse_49" data-name="Ellipse 49" cx="1.5" cy="1.5" rx="1.5" ry="1.5" transform="translate(39 77.977)" fill="#018395"/>
        <ellipse id="Ellipse_15" data-name="Ellipse 15" cx="1.5" cy="1.5" rx="1.5" ry="1.5" transform="translate(91 0)" fill="#018395"/>
        <ellipse id="Ellipse_61" data-name="Ellipse 61" cx="1.5" cy="1.5" rx="1.5" ry="1.5" transform="translate(91 51.985)" fill="#018395"/>
        <ellipse id="Ellipse_30" data-name="Ellipse 30" cx="1.5" cy="1.5" rx="1.5" ry="1.5" transform="translate(91 25.992)" fill="#018395"/>
        <ellipse id="Ellipse_62" data-name="Ellipse 62" cx="1.5" cy="1.5" rx="1.5" ry="1.5" transform="translate(91 77.977)" fill="#018395"/>
        <ellipse id="Ellipse_8" data-name="Ellipse 8" cx="1.5" cy="1.5" rx="1.5" ry="1.5" transform="translate(39 12.996)" fill="#018395"/>
        <ellipse id="Ellipse_50" data-name="Ellipse 50" cx="1.5" cy="1.5" rx="1.5" ry="1.5" transform="translate(39 64.981)" fill="#018395"/>
        <ellipse id="Ellipse_31" data-name="Ellipse 31" cx="1.5" cy="1.5" rx="1.5" ry="1.5" transform="translate(39 38.988)" fill="#018395"/>
        <ellipse id="Ellipse_60" data-name="Ellipse 60" cx="1.5" cy="1.5" rx="1.5" ry="1.5" transform="translate(39 90.973)" fill="#018395"/>
        <ellipse id="Ellipse_16" data-name="Ellipse 16" cx="1.5" cy="1.5" rx="1.5" ry="1.5" transform="translate(91 12.996)" fill="#018395"/>
        <ellipse id="Ellipse_63" data-name="Ellipse 63" cx="1.5" cy="1.5" rx="1.5" ry="1.5" transform="translate(91 64.981)" fill="#018395"/>
        <ellipse id="Ellipse_32" data-name="Ellipse 32" cx="1.5" cy="1.5" rx="1.5" ry="1.5" transform="translate(91 38.988)" fill="#018395"/>
        <ellipse id="Ellipse_64" data-name="Ellipse 64" cx="1.5" cy="1.5" rx="1.5" ry="1.5" transform="translate(91 90.973)" fill="#018395"/>
      </g>
      <g id="Group_6" data-name="Group 6" transform="translate(78 256.105)" opacity="0.2">
        <ellipse id="Ellipse_1-2" data-name="Ellipse 1" cx="1.5" cy="1.5" rx="1.5" ry="1.5" transform="translate(0 0)" fill="#018395"/>
        <ellipse id="Ellipse_33-2" data-name="Ellipse 33" cx="1.5" cy="1.5" rx="1.5" ry="1.5" transform="translate(0 51.985)" fill="#018395"/>
        <ellipse id="Ellipse_17-2" data-name="Ellipse 17" cx="1.5" cy="1.5" rx="1.5" ry="1.5" transform="translate(0 25.992)" fill="#018395"/>
        <ellipse id="Ellipse_34-2" data-name="Ellipse 34" cx="1.5" cy="1.5" rx="1.5" ry="1.5" transform="translate(0 77.977)" fill="#018395"/>
        <ellipse id="Ellipse_9-2" data-name="Ellipse 9" cx="1.5" cy="1.5" rx="1.5" ry="1.5" transform="translate(52 0)" fill="#018395"/>
        <ellipse id="Ellipse_35-2" data-name="Ellipse 35" cx="1.5" cy="1.5" rx="1.5" ry="1.5" transform="translate(52 51.985)" fill="#018395"/>
        <ellipse id="Ellipse_19-2" data-name="Ellipse 19" cx="1.5" cy="1.5" rx="1.5" ry="1.5" transform="translate(52 25.992)" fill="#018395"/>
        <ellipse id="Ellipse_36-2" data-name="Ellipse 36" cx="1.5" cy="1.5" rx="1.5" ry="1.5" transform="translate(52 77.977)" fill="#018395"/>
        <ellipse id="Ellipse_5-2" data-name="Ellipse 5" cx="1.5" cy="1.5" rx="1.5" ry="1.5" transform="translate(0 12.996)" fill="#018395"/>
        <ellipse id="Ellipse_37-2" data-name="Ellipse 37" cx="1.5" cy="1.5" rx="1.5" ry="1.5" transform="translate(0 64.981)" fill="#018395"/>
        <ellipse id="Ellipse_20-2" data-name="Ellipse 20" cx="1.5" cy="1.5" rx="1.5" ry="1.5" transform="translate(0 38.988)" fill="#018395"/>
        <ellipse id="Ellipse_51-2" data-name="Ellipse 51" cx="1.5" cy="1.5" rx="1.5" ry="1.5" transform="translate(0 90.973)" fill="#018395"/>
        <ellipse id="Ellipse_11-2" data-name="Ellipse 11" cx="1.5" cy="1.5" rx="1.5" ry="1.5" transform="translate(52 12.996)" fill="#018395"/>
        <ellipse id="Ellipse_38-2" data-name="Ellipse 38" cx="1.5" cy="1.5" rx="1.5" ry="1.5" transform="translate(52 64.981)" fill="#018395"/>
        <ellipse id="Ellipse_21-2" data-name="Ellipse 21" cx="1.5" cy="1.5" rx="1.5" ry="1.5" transform="translate(52 38.988)" fill="#018395"/>
        <ellipse id="Ellipse_52-2" data-name="Ellipse 52" cx="1.5" cy="1.5" rx="1.5" ry="1.5" transform="translate(52 90.973)" fill="#018395"/>
        <ellipse id="Ellipse_4-2" data-name="Ellipse 4" cx="1.5" cy="1.5" rx="1.5" ry="1.5" transform="translate(26 0)" fill="#018395"/>
        <ellipse id="Ellipse_39-2" data-name="Ellipse 39" cx="1.5" cy="1.5" rx="1.5" ry="1.5" transform="translate(26 51.985)" fill="#018395"/>
        <ellipse id="Ellipse_22-2" data-name="Ellipse 22" cx="1.5" cy="1.5" rx="1.5" ry="1.5" transform="translate(26 25.992)" fill="#018395"/>
        <ellipse id="Ellipse_40-2" data-name="Ellipse 40" cx="1.5" cy="1.5" rx="1.5" ry="1.5" transform="translate(26 77.977)" fill="#018395"/>
        <ellipse id="Ellipse_12-2" data-name="Ellipse 12" cx="1.5" cy="1.5" rx="1.5" ry="1.5" transform="translate(78 0)" fill="#018395"/>
        <ellipse id="Ellipse_53-2" data-name="Ellipse 53" cx="1.5" cy="1.5" rx="1.5" ry="1.5" transform="translate(78 51.985)" fill="#018395"/>
        <ellipse id="Ellipse_23-2" data-name="Ellipse 23" cx="1.5" cy="1.5" rx="1.5" ry="1.5" transform="translate(78 25.992)" fill="#018395"/>
        <ellipse id="Ellipse_54-2" data-name="Ellipse 54" cx="1.5" cy="1.5" rx="1.5" ry="1.5" transform="translate(78 77.977)" fill="#018395"/>
        <ellipse id="Ellipse_6-2" data-name="Ellipse 6" cx="1.5" cy="1.5" rx="1.5" ry="1.5" transform="translate(26 12.996)" fill="#018395"/>
        <ellipse id="Ellipse_41-2" data-name="Ellipse 41" cx="1.5" cy="1.5" rx="1.5" ry="1.5" transform="translate(26 64.981)" fill="#018395"/>
        <ellipse id="Ellipse_24-2" data-name="Ellipse 24" cx="1.5" cy="1.5" rx="1.5" ry="1.5" transform="translate(26 38.988)" fill="#018395"/>
        <ellipse id="Ellipse_55-2" data-name="Ellipse 55" cx="1.5" cy="1.5" rx="1.5" ry="1.5" transform="translate(26 90.973)" fill="#018395"/>
        <ellipse id="Ellipse_13-2" data-name="Ellipse 13" cx="1.5" cy="1.5" rx="1.5" ry="1.5" transform="translate(78 12.996)" fill="#018395"/>
        <ellipse id="Ellipse_56-2" data-name="Ellipse 56" cx="1.5" cy="1.5" rx="1.5" ry="1.5" transform="translate(78 64.981)" fill="#018395"/>
        <ellipse id="Ellipse_25-2" data-name="Ellipse 25" cx="1.5" cy="1.5" rx="1.5" ry="1.5" transform="translate(78 38.988)" fill="#018395"/>
        <ellipse id="Ellipse_57-2" data-name="Ellipse 57" cx="1.5" cy="1.5" rx="1.5" ry="1.5" transform="translate(78 90.973)" fill="#018395"/>
        <ellipse id="Ellipse_2-2" data-name="Ellipse 2" cx="1.5" cy="1.5" rx="1.5" ry="1.5" transform="translate(13 0)" fill="#018395"/>
        <ellipse id="Ellipse_42-2" data-name="Ellipse 42" cx="1.5" cy="1.5" rx="1.5" ry="1.5" transform="translate(13 51.985)" fill="#018395"/>
        <ellipse id="Ellipse_18-2" data-name="Ellipse 18" cx="1.5" cy="1.5" rx="1.5" ry="1.5" transform="translate(13 25.992)" fill="#018395"/>
        <ellipse id="Ellipse_43-2" data-name="Ellipse 43" cx="1.5" cy="1.5" rx="1.5" ry="1.5" transform="translate(13 77.977)" fill="#018395"/>
        <ellipse id="Ellipse_10-2" data-name="Ellipse 10" cx="1.5" cy="1.5" rx="1.5" ry="1.5" transform="translate(65 0)" fill="#018395"/>
        <ellipse id="Ellipse_44-2" data-name="Ellipse 44" cx="1.5" cy="1.5" rx="1.5" ry="1.5" transform="translate(65 51.985)" fill="#018395"/>
        <ellipse id="Ellipse_26-2" data-name="Ellipse 26" cx="1.5" cy="1.5" rx="1.5" ry="1.5" transform="translate(65 25.992)" fill="#018395"/>
        <ellipse id="Ellipse_45-2" data-name="Ellipse 45" cx="1.5" cy="1.5" rx="1.5" ry="1.5" transform="translate(65 77.977)" fill="#018395"/>
        <ellipse id="Ellipse_7-2" data-name="Ellipse 7" cx="1.5" cy="1.5" rx="1.5" ry="1.5" transform="translate(13 12.996)" fill="#018395"/>
        <ellipse id="Ellipse_46-2" data-name="Ellipse 46" cx="1.5" cy="1.5" rx="1.5" ry="1.5" transform="translate(13 64.981)" fill="#018395"/>
        <ellipse id="Ellipse_27-2" data-name="Ellipse 27" cx="1.5" cy="1.5" rx="1.5" ry="1.5" transform="translate(13 38.988)" fill="#018395"/>
        <ellipse id="Ellipse_58-2" data-name="Ellipse 58" cx="1.5" cy="1.5" rx="1.5" ry="1.5" transform="translate(13 90.973)" fill="#018395"/>
        <ellipse id="Ellipse_14-2" data-name="Ellipse 14" cx="1.5" cy="1.5" rx="1.5" ry="1.5" transform="translate(65 12.996)" fill="#018395"/>
        <ellipse id="Ellipse_47-2" data-name="Ellipse 47" cx="1.5" cy="1.5" rx="1.5" ry="1.5" transform="translate(65 64.981)" fill="#018395"/>
        <ellipse id="Ellipse_28-2" data-name="Ellipse 28" cx="1.5" cy="1.5" rx="1.5" ry="1.5" transform="translate(65 38.988)" fill="#018395"/>
        <ellipse id="Ellipse_59-2" data-name="Ellipse 59" cx="1.5" cy="1.5" rx="1.5" ry="1.5" transform="translate(65 90.973)" fill="#018395"/>
        <ellipse id="Ellipse_3-2" data-name="Ellipse 3" cx="1.5" cy="1.5" rx="1.5" ry="1.5" transform="translate(39 0)" fill="#018395"/>
        <ellipse id="Ellipse_48-2" data-name="Ellipse 48" cx="1.5" cy="1.5" rx="1.5" ry="1.5" transform="translate(39 51.985)" fill="#018395"/>
        <ellipse id="Ellipse_29-2" data-name="Ellipse 29" cx="1.5" cy="1.5" rx="1.5" ry="1.5" transform="translate(39 25.992)" fill="#018395"/>
        <ellipse id="Ellipse_49-2" data-name="Ellipse 49" cx="1.5" cy="1.5" rx="1.5" ry="1.5" transform="translate(39 77.977)" fill="#018395"/>
        <ellipse id="Ellipse_15-2" data-name="Ellipse 15" cx="1.5" cy="1.5" rx="1.5" ry="1.5" transform="translate(91 0)" fill="#018395"/>
        <ellipse id="Ellipse_61-2" data-name="Ellipse 61" cx="1.5" cy="1.5" rx="1.5" ry="1.5" transform="translate(91 51.985)" fill="#018395"/>
        <ellipse id="Ellipse_30-2" data-name="Ellipse 30" cx="1.5" cy="1.5" rx="1.5" ry="1.5" transform="translate(91 25.992)" fill="#018395"/>
        <ellipse id="Ellipse_62-2" data-name="Ellipse 62" cx="1.5" cy="1.5" rx="1.5" ry="1.5" transform="translate(91 77.977)" fill="#018395"/>
        <ellipse id="Ellipse_8-2" data-name="Ellipse 8" cx="1.5" cy="1.5" rx="1.5" ry="1.5" transform="translate(39 12.996)" fill="#018395"/>
        <ellipse id="Ellipse_50-2" data-name="Ellipse 50" cx="1.5" cy="1.5" rx="1.5" ry="1.5" transform="translate(39 64.981)" fill="#018395"/>
        <ellipse id="Ellipse_31-2" data-name="Ellipse 31" cx="1.5" cy="1.5" rx="1.5" ry="1.5" transform="translate(39 38.988)" fill="#018395"/>
        <ellipse id="Ellipse_60-2" data-name="Ellipse 60" cx="1.5" cy="1.5" rx="1.5" ry="1.5" transform="translate(39 90.973)" fill="#018395"/>
        <ellipse id="Ellipse_16-2" data-name="Ellipse 16" cx="1.5" cy="1.5" rx="1.5" ry="1.5" transform="translate(91 12.996)" fill="#018395"/>
        <ellipse id="Ellipse_63-2" data-name="Ellipse 63" cx="1.5" cy="1.5" rx="1.5" ry="1.5" transform="translate(91 64.981)" fill="#018395"/>
        <ellipse id="Ellipse_32-2" data-name="Ellipse 32" cx="1.5" cy="1.5" rx="1.5" ry="1.5" transform="translate(91 38.988)" fill="#018395"/>
        <ellipse id="Ellipse_64-2" data-name="Ellipse 64" cx="1.5" cy="1.5" rx="1.5" ry="1.5" transform="translate(91 90.973)" fill="#018395"/>
      </g>
    </g>
  </g>
</svg>
