<svg xmlns="http://www.w3.org/2000/svg" width="26" height="30" viewBox="0 0 26 30">
  <g id="Group_2" data-name="Group 2" transform="translate(-1115 -16)">
    <g id="user" transform="translate(1115 16)">
      <path id="Path_1" data-name="Path 1" d="M26,24.824a5.52,5.52,0,0,1-1.27,3.652A3.854,3.854,0,0,1,21.673,30H4.327A3.854,3.854,0,0,1,1.27,28.477,5.52,5.52,0,0,1,0,24.824a26.991,26.991,0,0,1,.173-3.135,16.281,16.281,0,0,1,.64-2.969A9.7,9.7,0,0,1,2,16.162,5.6,5.6,0,0,1,3.91,14.424a5.442,5.442,0,0,1,2.732-.674A8.963,8.963,0,0,0,13,16.25a8.963,8.963,0,0,0,6.358-2.5,5.442,5.442,0,0,1,2.732.674A5.6,5.6,0,0,1,24,16.162a9.7,9.7,0,0,1,1.188,2.559,16.281,16.281,0,0,1,.64,2.969A26.991,26.991,0,0,1,26,24.824ZM20.8,7.5a7.089,7.089,0,0,1-2.285,5.3A7.669,7.669,0,0,1,13,15a7.669,7.669,0,0,1-5.515-2.2A7.089,7.089,0,0,1,5.2,7.5,7.089,7.089,0,0,1,7.485,2.2,7.669,7.669,0,0,1,13,0a7.669,7.669,0,0,1,5.515,2.2A7.089,7.089,0,0,1,20.8,7.5Z" fill="#fff"/>
    </g>
  </g>
</svg>
